<svg width="36" height="36" viewBox="0 0 36 36" fill="none" xmlns="http://www.w3.org/2000/svg">
<rect width="36" height="36" rx="8" fill="#6A6CE0"/>
<path fill-rule="evenodd" clip-rule="evenodd" d="M9.92552 9.91383C14.353 5.49216 21.5513 5.53883 26.0057 9.99433C30.4624 14.451 30.509 21.6528 26.0804 26.0803C21.6529 30.5078 14.451 30.4623 9.99435 26.0057C8.74077 24.7572 7.7936 23.2353 7.22722 21.5592C6.66084 19.8831 6.49065 18.0986 6.73002 16.3457C6.76142 16.1156 6.88293 15.9075 7.06781 15.767C7.25269 15.6265 7.4858 15.5653 7.71585 15.5967C7.9459 15.6281 8.15406 15.7496 8.29452 15.9345C8.43499 16.1193 8.49626 16.3524 8.46485 16.5825C8.26166 18.068 8.40571 19.5804 8.88567 21.0009C9.36564 22.4213 10.1684 23.7112 11.231 24.769C15.0169 28.5537 21.1103 28.5758 24.8437 24.8437C28.5758 21.1103 28.5537 15.0168 24.769 11.231C20.9855 7.44866 14.8955 7.42417 11.1622 11.1517L12.0349 11.1552C12.1498 11.1557 12.2634 11.1789 12.3694 11.2233C12.4753 11.2678 12.5715 11.3327 12.6524 11.4143C12.7332 11.496 12.7972 11.5927 12.8407 11.6991C12.8842 11.8055 12.9063 11.9193 12.9058 12.0342C12.9052 12.1492 12.8821 12.2628 12.8376 12.3688C12.7931 12.4747 12.7282 12.5709 12.6466 12.6518C12.565 12.7326 12.4682 12.7966 12.3618 12.8401C12.2555 12.8836 12.1416 12.9057 12.0267 12.9052L9.05635 12.8912C8.8257 12.8899 8.60486 12.7977 8.44188 12.6345C8.27889 12.4713 8.18694 12.2503 8.18602 12.0197L8.17085 9.05166C8.17024 8.93676 8.19226 8.82286 8.23567 8.71646C8.27908 8.61007 8.34301 8.51326 8.42383 8.43158C8.50465 8.3499 8.60076 8.28493 8.70669 8.24039C8.81262 8.19585 8.92628 8.17261 9.04118 8.172C9.15609 8.17139 9.26999 8.19341 9.37639 8.23682C9.48278 8.28022 9.57958 8.34416 9.66127 8.42498C9.74295 8.5058 9.80792 8.60191 9.85246 8.70784C9.897 8.81376 9.92024 8.92742 9.92085 9.04233L9.92552 9.91383ZM17.9988 12.4572C18.2309 12.4572 18.4535 12.5494 18.6176 12.7134C18.7817 12.8775 18.8738 13.1001 18.8738 13.3322V17.6372L21.535 20.2972C21.6186 20.3778 21.6853 20.4744 21.7312 20.5811C21.7771 20.6878 21.8013 20.8026 21.8024 20.9188C21.8035 21.035 21.7814 21.1502 21.7374 21.2578C21.6935 21.3653 21.6286 21.4631 21.5464 21.5453C21.4643 21.6274 21.3667 21.6925 21.2592 21.7365C21.1516 21.7806 21.0364 21.8027 20.9202 21.8018C20.8041 21.8008 20.6892 21.7768 20.5825 21.731C20.4757 21.6851 20.3791 21.6185 20.2984 21.535L17.125 18.3617V13.3333C17.125 13.1013 17.2172 12.8787 17.3813 12.7146C17.5454 12.5505 17.768 12.4583 18 12.4583" fill="#FFFEFC"/>
</svg>
