<svg width="50" height="50" viewBox="0 0 50 50" fill="none" xmlns="http://www.w3.org/2000/svg">
<circle cx="25.0026" cy="25.0026" r="21.4789" fill="#FEBD06"/>
<path fill-rule="evenodd" clip-rule="evenodd" d="M21.8632 35.2666C26.4843 35.2666 28.1649 29.7343 30.7902 26.6984C32.6686 24.5262 35.8744 25.1739 36.8233 22.1329C39.2094 14.486 32.8229 9.104 24.4914 9.104C16.1598 9.104 10.5421 13.8242 9.32916 20.9199C8.11619 28.0156 13.5317 35.2666 21.8632 35.2666Z" fill="#191847"/>
<path fill-rule="evenodd" clip-rule="evenodd" d="M18.3159 45.4913L22.4623 30.7373C20.6913 28.5877 19.5113 25.9789 19.7157 23.0664C20.3228 14.4136 32.3677 16.3171 34.7107 20.6843C37.0537 25.0515 36.7753 36.1291 33.7472 36.9097C32.6377 37.1957 30.3759 36.5752 27.9851 35.2485L30.291 45.8615C28.581 46.2998 26.7888 46.5328 24.9421 46.5328C22.6298 46.5328 20.4029 46.1674 18.3159 45.4913Z" fill="#F09B9B"/>
<path fill-rule="evenodd" clip-rule="evenodd" d="M20.1201 15.272C12.6873 22.5499 20.1485 30.2853 22.1928 30.2853C22.3252 29.2322 22.7297 28.2078 23.3224 27.2331C22.996 26.8227 22.8017 26.3075 22.8017 25.7481C22.8017 24.4083 23.9162 23.3222 25.291 23.3222C25.7351 23.3222 26.1521 23.4355 26.5132 23.6342C29.4898 21.1018 33.2149 19.3372 35.0665 18.9896C38.2942 18.3837 27.5529 7.99417 20.1201 15.272Z" fill="#191847"/>
<path d="M49.8512 25C49.8512 38.7249 38.7249 49.8512 25 49.8512C11.2751 49.8512 0.14881 38.7249 0.14881 25C0.14881 11.2751 11.2751 0.14881 25 0.14881C38.7249 0.14881 49.8512 11.2751 49.8512 25Z" stroke="black" stroke-opacity="0.1" stroke-width="0.297619"/>
</svg>
