<svg width="26" height="26" viewBox="0 0 26 26" fill="none" xmlns="http://www.w3.org/2000/svg">
<rect width="26" height="26" rx="6" fill="#6A6CE0"/>
<g clip-path="url(#clip0_412_197)">
<path d="M18.8334 18.8334L17.6667 17.6668M12.7084 18.2501C13.4361 18.2501 14.1567 18.1067 14.8291 17.8282C15.5014 17.5498 16.1123 17.1416 16.6269 16.627C17.1415 16.1124 17.5497 15.5015 17.8282 14.8291C18.1067 14.1568 18.25 13.4362 18.25 12.7084C18.25 11.9807 18.1067 11.2601 17.8282 10.5877C17.5497 9.91537 17.1415 9.30446 16.6269 8.78987C16.1123 8.27527 15.5014 7.86708 14.8291 7.58858C14.1567 7.31009 13.4361 7.16675 12.7084 7.16675C11.2386 7.16675 9.82907 7.7506 8.7898 8.78987C7.75054 9.82913 7.16669 11.2387 7.16669 12.7084C7.16669 14.1782 7.75054 15.5877 8.7898 16.627C9.82907 17.6662 11.2386 18.2501 12.7084 18.2501V18.2501Z" stroke="#FFFEFC" stroke-width="1.5" stroke-linecap="round" stroke-linejoin="round"/>
</g>
<defs>
<clipPath id="clip0_412_197">
<rect width="14" height="14" fill="white" transform="translate(6 6)"/>
</clipPath>
</defs>
</svg>
