<svg width="36" height="36" viewBox="0 0 36 36" fill="none" xmlns="http://www.w3.org/2000/svg">
<rect width="36" height="36" rx="8" fill="#6A6CE0"/>
<path d="M14.5 23.2499C13.6833 23.2499 12.9931 22.968 12.4292 22.4041C11.8653 21.8402 11.5833 21.1499 11.5833 20.3333C11.5833 19.5166 11.8653 18.8263 12.4292 18.2624C12.9931 17.6985 13.6833 17.4166 14.5 17.4166C15.3167 17.4166 16.0069 17.6985 16.5708 18.2624C17.1347 18.8263 17.4167 19.5166 17.4167 20.3333C17.4167 21.1499 17.1347 21.8402 16.5708 22.4041C16.0069 22.968 15.3167 23.2499 14.5 23.2499ZM9.83333 29.6666C9.19167 29.6666 8.64256 29.4383 8.186 28.9818C7.72944 28.5252 7.50078 27.9757 7.5 27.3333V10.9999C7.5 10.3583 7.72867 9.80914 8.186 9.35259C8.64333 8.89603 9.19244 8.66736 9.83333 8.66659H11V6.33325H13.3333V8.66659H22.6667V6.33325H25V8.66659H26.1667C26.8083 8.66659 27.3578 8.89525 27.8152 9.35259C28.2725 9.80992 28.5008 10.359 28.5 10.9999V27.3333C28.5 27.9749 28.2717 28.5244 27.8152 28.9818C27.3586 29.4391 26.8091 29.6674 26.1667 29.6666H9.83333ZM9.83333 27.3333H26.1667V15.6666H9.83333V27.3333ZM9.83333 13.3333H26.1667V10.9999H9.83333V13.3333Z" fill="#FFFEFC"/>
</svg>
