<svg width="36" height="36" viewBox="0 0 36 36" fill="none" xmlns="http://www.w3.org/2000/svg">
<rect width="36" height="36" rx="8" fill="#D8D8D8"/>
<path d="M14.5 23.25C13.6833 23.25 12.9931 22.9681 12.4292 22.4042C11.8653 21.8403 11.5833 21.15 11.5833 20.3333C11.5833 19.5167 11.8653 18.8264 12.4292 18.2625C12.9931 17.6986 13.6833 17.4167 14.5 17.4167C15.3167 17.4167 16.0069 17.6986 16.5708 18.2625C17.1347 18.8264 17.4167 19.5167 17.4167 20.3333C17.4167 21.15 17.1347 21.8403 16.5708 22.4042C16.0069 22.9681 15.3167 23.25 14.5 23.25ZM9.83333 29.6667C9.19167 29.6667 8.64256 29.4384 8.186 28.9818C7.72944 28.5253 7.50078 27.9758 7.5 27.3333V11C7.5 10.3583 7.72867 9.80922 8.186 9.35267C8.64333 8.89611 9.19244 8.66744 9.83333 8.66667H11V6.33333H13.3333V8.66667H22.6667V6.33333H25V8.66667H26.1667C26.8083 8.66667 27.3578 8.89533 27.8152 9.35267C28.2725 9.81 28.5008 10.3591 28.5 11V27.3333C28.5 27.975 28.2717 28.5245 27.8152 28.9818C27.3586 29.4392 26.8091 29.6674 26.1667 29.6667H9.83333ZM9.83333 27.3333H26.1667V15.6667H9.83333V27.3333ZM9.83333 13.3333H26.1667V11H9.83333V13.3333Z" fill="#FFFEFC"/>
</svg>
